<svg width="1166" height="858" viewBox="0 0 1166 858" fill="none" xmlns="http://www.w3.org/2000/svg">
<path d="M933.86 286.87C933.86 443.1 803.35 569.74 664.39 569.74C525.43 569.74 383 443.1 383 286.87C383 130.64 525.43 4 664.39 4C803.35 4 933.86 130.65 933.86 286.87Z" fill="url(#paint0_linear)"/>
<path d="M924.71 293.87C924.71 442.78 800.31 563.5 667.85 563.5C535.39 563.5 399.65 442.79 399.65 293.87C399.65 144.95 535.4 24.24 667.86 24.24C800.32 24.24 924.71 145 924.71 293.87Z" fill="#AA8F66"/>
<path d="M628.67 663.58C628.67 654.17 620.2 646.58 609.75 646.58C599.3 646.58 590.83 654.21 590.83 663.58C590.83 671.51 596.83 678.16 605.02 680.06V693.39H614.48V680.06C622.64 678.16 628.67 671.52 628.67 663.58Z" fill="url(#paint1_linear)"/>
<path d="M560.53 665.71L541.37 646.55L540.99 646.93V646.84C538.99 642.6 535.59 639.98 533.47 640.99C531.35 642 531.27 646.27 533.3 650.51C533.735 651.42 534.254 652.287 534.85 653.1L532.85 655.1C532.85 655.1 581.85 704.1 600.99 701.95L604.6 688.59C604.6 688.59 588.22 689.13 560.53 665.71Z" fill="url(#paint2_linear)"/>
<path d="M609.29 679.92C617.994 679.92 625.05 672.864 625.05 664.16C625.05 655.456 617.994 648.4 609.29 648.4C600.586 648.4 593.53 655.456 593.53 664.16C593.53 672.864 600.586 679.92 609.29 679.92Z" fill="#F8C198"/>
<path d="M613.23 675.99H605.35V691.75H613.23V675.99Z" fill="#F8C198"/>
<path d="M617.05 685.84H601.53C597.112 685.84 593.53 689.422 593.53 693.84V748.77C593.53 753.188 597.112 756.77 601.53 756.77H617.05C621.468 756.77 625.05 753.188 625.05 748.77V693.84C625.05 689.422 621.468 685.84 617.05 685.84Z" fill="#605B38"/>
<path d="M602.78 687.27C602.78 687.27 587.62 687.81 562 666.13L544.27 648.4L536.39 656.28C536.39 656.28 581.71 701.6 599.39 699.63L602.78 687.27Z" fill="#4682B4"/>
<path d="M543.732 657.48C545.695 656.541 545.764 652.598 543.887 648.672C542.009 644.745 538.895 642.324 536.932 643.263C534.969 644.202 534.9 648.145 536.778 652.071C538.656 655.998 541.769 658.419 543.732 657.48Z" fill="#F8C198"/>
<path d="M682.59 686.12C693.984 686.12 703.22 676.884 703.22 665.49C703.22 654.096 693.984 644.86 682.59 644.86C671.196 644.86 661.96 654.096 661.96 665.49C661.96 676.884 671.196 686.12 682.59 686.12Z" fill="url(#paint3_linear)"/>
<path d="M682.59 684.14C692.89 684.14 701.24 675.79 701.24 665.49C701.24 655.19 692.89 646.84 682.59 646.84C672.29 646.84 663.94 655.19 663.94 665.49C663.94 675.79 672.29 684.14 682.59 684.14Z" fill="#F8C198"/>
<path d="M687.25 679.48H677.92V698.13H687.25V679.48Z" fill="#F8C198"/>
<path d="M695.53 689.56H672.43C671.166 689.563 669.921 689.87 668.8 690.455C667.68 691.04 666.716 691.885 665.99 692.92C648.44 695.2 612.33 698.72 608.67 689.56L606.99 690.82C606.689 689.666 606.277 688.544 605.76 687.47C603.44 682.63 599.6 679.64 597.18 680.8C594.76 681.96 594.67 686.8 596.99 691.66C597.755 693.28 598.767 694.771 599.99 696.08L598.99 696.85C598.99 696.85 635.92 712.4 664.58 710.46V769.13C664.585 771.221 665.418 773.225 666.897 774.703C668.375 776.182 670.379 777.015 672.47 777.02H695.57C697.661 777.015 699.665 776.182 701.143 774.703C702.622 773.225 703.455 771.221 703.46 769.13V697.44C703.452 695.344 702.612 693.337 701.126 691.859C699.639 690.382 697.626 689.555 695.53 689.56Z" fill="url(#paint4_linear)"/>
<path d="M693.23 691.14H671.93C667.512 691.14 663.93 694.722 663.93 699.14V767.07C663.93 771.488 667.512 775.07 671.93 775.07H693.23C697.648 775.07 701.23 771.488 701.23 767.07V699.14C701.23 694.722 697.648 691.14 693.23 691.14Z" fill="#0D5C63"/>
<path d="M674.42 693.05C674.42 693.05 614.97 702.79 610.31 691.13L600.98 698.13C600.98 698.13 645.28 716.78 673.25 709.79C701.22 702.8 674.42 693.05 674.42 693.05Z" fill="#0D5C63"/>
<path d="M607.344 699.551C609.665 698.441 609.745 693.772 607.522 689.124C605.299 684.475 601.614 681.607 599.293 682.717C596.971 683.828 596.891 688.496 599.114 693.145C601.337 697.793 605.022 700.661 607.344 699.551Z" fill="#F8C198"/>
<path d="M664.36 645.35C664.844 645.31 665.328 645.42 665.746 645.665C666.165 645.911 666.498 646.279 666.7 646.72C668.62 642.52 673.16 639.95 677.7 639.36C682.24 638.77 686.91 639.87 691.28 641.36C696.87 643.27 702.34 645.91 706.55 650.05C710.76 654.19 713.55 660.05 713.06 665.92C712.68 670.25 710.59 674.22 708.53 678.04C707.26 680.41 705.88 682.87 703.61 684.3C698.87 687.3 692.15 684.13 689.61 679.14C688.77 677.49 688.25 675.69 687.32 674.14C684.51 669.3 678.69 667.32 673.68 664.81C664.92 660.36 664.23 654.24 664.36 645.35Z" fill="url(#paint5_linear)"/>
<path d="M743.15 707.51H574.75V853H743.15V707.51Z" fill="url(#paint6_linear)"/>
<path d="M739.33 707.51H579.74V845.43H739.33V707.51Z" fill="#90708C"/>
<path d="M737.36 707.51L744.02 581.48" stroke="#AD7676" stroke-width="2" stroke-miterlimit="10"/>
<path d="M581 710L580 584" stroke="#AD7676" stroke-width="2" stroke-miterlimit="10"/>
<path opacity="0.2" d="M666.77 664.55C666.779 659.857 668.559 655.34 671.753 651.901C674.947 648.462 679.32 646.355 684 646C683.53 646 683.06 645.93 682.58 645.93C677.634 645.93 672.89 647.895 669.392 651.392C665.895 654.89 663.93 659.634 663.93 664.58C663.93 669.526 665.895 674.27 669.392 677.768C672.89 681.265 677.634 683.23 682.58 683.23C683.06 683.23 683.53 683.23 684 683.16C679.31 682.804 674.928 680.688 671.732 677.237C668.537 673.786 666.764 669.254 666.77 664.55Z" fill="white"/>
<path opacity="0.2" d="M595.82 662.66C595.822 657.958 597.601 653.431 600.8 649.986C603.999 646.54 608.381 644.431 613.07 644.08C612.6 644.08 612.13 644.01 611.65 644.01C606.704 644.01 601.96 645.975 598.462 649.472C594.965 652.97 593 657.714 593 662.66C593 667.606 594.965 672.35 598.462 675.848C601.96 679.345 606.704 681.31 611.65 681.31C612.13 681.31 612.6 681.31 613.07 681.24C608.381 680.889 603.999 678.78 600.8 675.334C597.601 671.889 595.822 667.362 595.82 662.66Z" fill="white"/>
<path d="M606.18 677C607.192 677.674 608.136 678.444 609 679.3C612.35 683.47 606 689.93 608.38 694.73C609.43 696.85 611.93 697.93 613.05 700.01C615.18 703.96 611.61 709.74 614.7 713.01C615.53 713.88 616.7 714.39 617.35 715.41C618.6 717.41 616.85 720.07 617.13 722.41C617.48 725.41 620.76 727.01 623.59 728.07C626 728.97 629.16 729.69 630.8 727.7C631.59 726.7 631.74 725.39 632.48 724.38C633.86 722.49 636.64 722.48 638.67 721.32C641.82 719.52 642.59 715.32 642.59 711.71C642.59 708.1 642.23 704.16 644.21 701.11C646.45 697.65 651.1 696.36 653.34 692.9C656.73 687.64 652.99 680.29 655.41 674.52C656.25 672.52 657.79 670.83 658.29 668.73C659.12 665.26 656.9 661.73 654.29 659.4C651.68 657.07 648.42 655.24 646.21 652.4C644.66 650.4 643.65 648.05 641.82 646.34C637.38 642.2 630.32 643.68 624.39 642.34C618.9 641.15 613.84 637.39 608.25 638.02C603.36 638.57 599.54 642.33 596.13 645.88C595.234 646.655 594.576 647.667 594.23 648.8C593.23 653.63 597.92 658.6 599.98 662.14C602.61 666.88 601.8 673.33 606.18 677Z" fill="#333333"/>
<g opacity="0.2">
<path opacity="0.2" d="M596.07 649.79C599.48 646.24 603.3 642.48 608.19 641.93C613.77 641.3 618.84 645.06 624.33 646.25C630.26 647.54 637.33 646.06 641.76 650.25C643.59 651.96 644.6 654.35 646.15 656.31C648.36 659.1 651.58 660.89 654.23 663.31C656.07 664.863 657.438 666.9 658.18 669.19C658.18 669.08 658.25 668.97 658.28 668.86C659.11 665.39 656.89 661.86 654.23 659.53C651.57 657.2 648.36 655.37 646.15 652.53C644.6 650.53 643.59 648.18 641.76 646.47C637.32 642.33 630.26 643.81 624.33 642.47C618.84 641.28 613.78 637.52 608.19 638.15C603.3 638.7 599.48 642.46 596.07 646.01C595.174 646.785 594.516 647.797 594.17 648.93C593.967 650.033 594.012 651.167 594.3 652.25C594.713 651.316 595.316 650.478 596.07 649.79Z" fill="white"/>
<path opacity="0.2" d="M617.47 719.43C617.194 720.405 617.079 721.418 617.13 722.43C617.173 722.8 617.264 723.163 617.4 723.51C617.72 722.09 618.07 720.66 617.47 719.43Z" fill="white"/>
<path opacity="0.2" d="M613.64 705.59C613.371 707.243 613.331 708.926 613.52 710.59C613.783 708.936 613.824 707.255 613.64 705.59Z" fill="white"/>
<path opacity="0.2" d="M654.76 688.36C654.856 686.185 654.799 684.007 654.59 681.84C654.493 684.015 654.55 686.193 654.76 688.36Z" fill="white"/>
<path opacity="0.2" d="M642.55 712.82C642.55 712.46 642.55 712.1 642.55 711.75C642.55 711.57 642.55 711.39 642.55 711.21C642.56 711.75 642.55 712.29 642.55 712.82Z" fill="white"/>
<path opacity="0.2" d="M609.73 684.42C609.01 687.57 607.18 691.03 608.08 693.97C608.78 690.68 610.7 687.21 609.73 684.42Z" fill="white"/>
</g>
<path d="M665.77 646.32C666.225 646.283 666.68 646.387 667.074 646.618C667.467 646.848 667.78 647.195 667.97 647.61C669.78 643.61 674.05 641.23 678.37 640.67C682.69 640.11 687.05 641.15 691.17 642.56C696.44 644.36 701.59 646.85 705.56 650.75C709.53 654.65 712.18 660.16 711.69 665.75C711.33 669.83 709.36 673.57 707.42 677.17C706.22 679.4 704.92 681.72 702.78 683.07C698.31 685.88 691.98 682.91 689.57 678.21C688.78 676.66 688.29 674.96 687.41 673.46C684.76 668.9 679.27 667.04 674.56 664.67C666.29 660.48 665.64 654.71 665.77 646.32Z" fill="#605B38"/>
<path opacity="0.2" d="M665.77 648.22C666.225 648.183 666.68 648.287 667.074 648.518C667.467 648.748 667.78 649.095 667.97 649.51C669.78 645.51 674.05 643.13 678.37 642.57C682.69 642.01 687.05 643.05 691.17 644.46C696.44 646.26 701.59 648.75 705.56 652.65C709.076 655.985 711.262 660.484 711.71 665.31C712.04 659.9 709.43 654.57 705.56 650.76C701.69 646.95 696.44 644.37 691.17 642.57C687.05 641.16 682.68 640.12 678.37 640.68C674.06 641.24 669.78 643.68 667.97 647.62C667.78 647.205 667.467 646.858 667.074 646.628C666.68 646.397 666.225 646.293 665.77 646.33C665.77 647.14 665.77 647.93 665.77 648.69C665.76 648.53 665.76 648.37 665.77 648.22Z" fill="white"/>
<path d="M686.31 572.96H626.71V593.77H686.31V572.96Z" fill="#AA8F66"/>
<g opacity="0.2">
<path opacity="0.2" d="M667.86 23.3C664.7 23.3 661.55 23.39 658.39 23.53C787.25 29.09 905.8 147.53 905.8 292.93C905.8 438.33 787.24 556.77 658.39 562.33C661.55 562.47 664.71 562.56 667.86 562.56C800.31 562.56 924.72 441.84 924.72 292.93C924.72 144.02 800.31 23.3 667.86 23.3Z" fill="black"/>
</g>
<g opacity="0.2">
<path opacity="0.2" d="M414.78 293.87C414.78 147.09 546.68 27.7 677.31 24.32C675.42 24.32 673.53 24.24 671.64 24.24C539.19 24.24 403.43 145 403.43 293.87C403.43 442.74 539.19 563.5 671.64 563.5C673.53 563.5 675.42 563.5 677.31 563.42C546.69 560 414.78 440.66 414.78 293.87Z" fill="white"/>
</g>
<path d="M744.97 525.66H573.73V581.48H744.97V525.66Z" fill="#AA8F66"/>
<path opacity="0.2" d="M573.72 43.88C573.72 43.88 370.32 276.37 573.72 543.88L640.89 543.65C640.89 543.65 455.46 322.65 632.38 27.1L599.27 34.65L573.72 43.88Z" fill="#0D5C63"/>
<path opacity="0.2" d="M750.64 40.33C750.64 40.33 954.04 276.33 750.64 543.87L683.47 543.64C683.47 543.64 868.9 320.76 691.98 25.2L725.07 31.81L750.64 40.33Z" fill="#0D5C63"/>
<path d="M445.01 69.68H430V82.64H445.01V69.68Z" fill="url(#paint7_linear)"/>
<path d="M444.67 69.68H430.45V81.97H444.67V69.68Z" fill="#E6E6E6"/>
<g opacity="0.2">
<path opacity="0.2" d="M433.81 70.74C433.795 70.8294 433.795 70.9206 433.81 71.01C433.806 71.0432 433.806 71.0768 433.81 71.11C433.852 70.9902 433.852 70.8598 433.81 70.74Z" fill="white"/>
<path opacity="0.2" d="M433.47 69.5C433.45 69.646 433.45 69.794 433.47 69.94C433.489 69.794 433.489 69.646 433.47 69.5Z" fill="white"/>
</g>
<g opacity="0.2">
<path opacity="0.2" d="M917.32 83.27C917.299 83.3958 917.299 83.5242 917.32 83.65C917.315 83.6932 917.315 83.7368 917.32 83.78C917.377 83.6148 917.377 83.4352 917.32 83.27Z" fill="white"/>
<path opacity="0.2" d="M916.84 81.55C916.812 81.7557 916.812 81.9643 916.84 82.17C916.868 81.9642 916.868 81.7557 916.84 81.55Z" fill="white"/>
</g>
<defs>
<linearGradient id="paint0_linear" x1="658.43" y1="569.75" x2="658.43" y2="4" gradientUnits="userSpaceOnUse">
<stop stop-color="#808080" stop-opacity="0.25"/>
<stop offset="0.54" stop-color="#808080" stop-opacity="0.12"/>
<stop offset="1" stop-color="#808080" stop-opacity="0.1"/>
</linearGradient>
<linearGradient id="paint1_linear" x1="26574.8" y1="34227.6" x2="26574.8" y2="32035" gradientUnits="userSpaceOnUse">
<stop stop-color="#808080" stop-opacity="0.25"/>
<stop offset="0.54" stop-color="#808080" stop-opacity="0.12"/>
<stop offset="1" stop-color="#808080" stop-opacity="0.1"/>
</linearGradient>
<linearGradient id="paint2_linear" x1="47479.7" y1="45103.6" x2="47479.7" y2="41354.8" gradientUnits="userSpaceOnUse">
<stop stop-color="#808080" stop-opacity="0.25"/>
<stop offset="0.54" stop-color="#808080" stop-opacity="0.12"/>
<stop offset="1" stop-color="#808080" stop-opacity="0.1"/>
</linearGradient>
<linearGradient id="paint3_linear" x1="31550.9" y1="29160.5" x2="31550.9" y2="27458.5" gradientUnits="userSpaceOnUse">
<stop stop-color="#808080" stop-opacity="0.25"/>
<stop offset="0.54" stop-color="#808080" stop-opacity="0.12"/>
<stop offset="1" stop-color="#808080" stop-opacity="0.1"/>
</linearGradient>
<linearGradient id="paint4_linear" x1="79147.6" y1="77953.9" x2="79147.6" y2="68647.4" gradientUnits="userSpaceOnUse">
<stop stop-color="#808080" stop-opacity="0.25"/>
<stop offset="0.54" stop-color="#808080" stop-opacity="0.12"/>
<stop offset="1" stop-color="#808080" stop-opacity="0.1"/>
</linearGradient>
<linearGradient id="paint5_linear" x1="38005.6" y1="33464.8" x2="38005.6" y2="31324" gradientUnits="userSpaceOnUse">
<stop stop-color="#808080" stop-opacity="0.25"/>
<stop offset="0.54" stop-color="#808080" stop-opacity="0.12"/>
<stop offset="1" stop-color="#808080" stop-opacity="0.1"/>
</linearGradient>
<linearGradient id="paint6_linear" x1="122665" y1="125538" x2="122665" y2="104371" gradientUnits="userSpaceOnUse">
<stop stop-color="#808080" stop-opacity="0.25"/>
<stop offset="0.54" stop-color="#808080" stop-opacity="0.12"/>
<stop offset="1" stop-color="#808080" stop-opacity="0.1"/>
</linearGradient>
<linearGradient id="paint7_linear" x1="7053.32" y1="1231.41" x2="7053.32" y2="1063.45" gradientUnits="userSpaceOnUse">
<stop stop-color="#808080" stop-opacity="0.25"/>
<stop offset="0.54" stop-color="#808080" stop-opacity="0.12"/>
<stop offset="1" stop-color="#808080" stop-opacity="0.1"/>
</linearGradient>
</defs>
</svg>
