<svg width="996" height="675" viewBox="0 0 996 675" fill="none" xmlns="http://www.w3.org/2000/svg">
<path d="M459.908 386.443L459.875 386.46L315.201 467.019L156.779 387.808L154.049 386.443L162.271 222.003L305.334 120.05L306.913 121.037L454.975 213.781L459.908 386.443Z" fill="#AA8F66"/>
<path opacity="0.3" d="M459.875 386.46L315.201 467.019L156.779 387.808L297.112 289.424L459.875 386.46Z" fill="black"/>
<path opacity="0.1" d="M459.908 386.443L297.112 289.424L306.913 121.037L454.975 213.781L459.908 386.443Z" fill="black"/>
<path d="M160.165 272.745L159.361 271.607L304.021 169.5L456.834 265.309L456.094 266.49L304.066 171.173L160.165 272.745Z" fill="#F2F2F2"/>
<path d="M157.361 328.61L156.579 327.458L300.505 229.743L300.882 229.957L456.963 318.417L456.275 319.629L300.571 231.382L157.361 328.61Z" fill="#F2F2F2"/>
<path d="M212.276 415.965L211.542 414.781L356.595 324.9V152.594H357.988V325.676L212.276 415.965Z" fill="#F2F2F2"/>
<path d="M269.209 444.428L268.469 443.248L408.138 355.645V184.879H409.531V356.416L269.209 444.428Z" fill="#F2F2F2"/>
<path d="M407.612 415.982L245.176 325.73L245.199 325.296L253.75 156.281L255.141 156.352L246.612 324.933L408.289 414.764L407.612 415.982Z" fill="#F2F2F2"/>
<path d="M356.507 444.455L195.895 360.288L195.92 359.841L205.388 190.742L206.779 190.82L197.337 359.471L357.154 443.221L356.507 444.455Z" fill="#F2F2F2"/>
</svg>
